# xmcd
#
# Track frame offsets: 
#        150
#        17509
#        36728
#        56062
#        74690
#        93701
#        111482
#        130929
#
# Disc length: 1974 seconds
#
# Revision: 6
# Processed by: cddbd v1.5.2PL0 Copyright (c) Steve Scherf et al.
# Submitted via: ExactAudioCopyFreeDBPlugin 1.0
#
DISCID=7c07b408
DTITLE=Niteflyte - Niteflyte II (2009 Remastered)
DYEAR=1981
DGENRE=Soul
TTITLE0=You Are
TTITLE1=You're Breaking My Heart
TTITLE2=Shoot From The Hip
TTITLE3=Anyway You Want
TTITLE4=Sexy Dancer
TTITLE5=On Your Own
TTITLE6=Alicia's Song
TTITLE7=I Knew It Couldn't Happen
EXTD=
EXTT0=
EXTT1=
EXTT2=
EXTT3=
EXTT4=
EXTT5=
EXTT6=
EXTT7=
PLAYORDER=
